<mxfile host="Electron" agent="Mozilla/5.0 (Macintosh; Intel Mac OS X 10_15_7) AppleWebKit/537.36 (KHTML, like Gecko) draw.io/24.7.5 Chrome/126.0.6478.183 Electron/31.3.0 Safari/537.36" version="24.7.5">
  <diagram name="Page-1" id="sr-yQq6DNrDkLltkiCtA">
    <mxGraphModel dx="1026" dy="658" grid="1" gridSize="10" guides="1" tooltips="1" connect="1" arrows="1" fold="1" page="1" pageScale="1" pageWidth="850" pageHeight="1100" math="0" shadow="0">
      <root>
        <mxCell id="0" />
        <mxCell id="1" parent="0" />
        <mxCell id="3mnLrCownMHRzhvr0oC8-12" value="" style="rounded=1;whiteSpace=wrap;html=1;fillColor=none;" vertex="1" parent="1">
          <mxGeometry x="170" y="70" width="60" height="170" as="geometry" />
        </mxCell>
        <mxCell id="3mnLrCownMHRzhvr0oC8-1" value="" style="rounded=0;whiteSpace=wrap;html=1;" vertex="1" parent="1">
          <mxGeometry x="80" y="280" width="80" height="60" as="geometry" />
        </mxCell>
        <mxCell id="3mnLrCownMHRzhvr0oC8-11" style="edgeStyle=orthogonalEdgeStyle;rounded=0;orthogonalLoop=1;jettySize=auto;html=1;exitX=0.5;exitY=0;exitDx=0;exitDy=0;entryX=0.5;entryY=1;entryDx=0;entryDy=0;" edge="1" parent="1" source="3mnLrCownMHRzhvr0oC8-2" target="3mnLrCownMHRzhvr0oC8-12">
          <mxGeometry relative="1" as="geometry">
            <mxPoint x="200" y="250" as="targetPoint" />
          </mxGeometry>
        </mxCell>
        <mxCell id="3mnLrCownMHRzhvr0oC8-2" value="" style="rounded=0;whiteSpace=wrap;html=1;" vertex="1" parent="1">
          <mxGeometry x="160" y="280" width="80" height="60" as="geometry" />
        </mxCell>
        <mxCell id="3mnLrCownMHRzhvr0oC8-3" value="" style="rounded=0;whiteSpace=wrap;html=1;" vertex="1" parent="1">
          <mxGeometry x="240" y="280" width="80" height="60" as="geometry" />
        </mxCell>
        <mxCell id="3mnLrCownMHRzhvr0oC8-4" value="" style="rounded=0;whiteSpace=wrap;html=1;" vertex="1" parent="1">
          <mxGeometry x="320" y="280" width="80" height="60" as="geometry" />
        </mxCell>
        <mxCell id="3mnLrCownMHRzhvr0oC8-27" style="edgeStyle=orthogonalEdgeStyle;rounded=0;orthogonalLoop=1;jettySize=auto;html=1;exitX=0.5;exitY=0;exitDx=0;exitDy=0;entryX=0.5;entryY=1;entryDx=0;entryDy=0;" edge="1" parent="1" source="3mnLrCownMHRzhvr0oC8-5" target="3mnLrCownMHRzhvr0oC8-20">
          <mxGeometry relative="1" as="geometry" />
        </mxCell>
        <mxCell id="3mnLrCownMHRzhvr0oC8-5" value="" style="rounded=0;whiteSpace=wrap;html=1;" vertex="1" parent="1">
          <mxGeometry x="400" y="280" width="80" height="60" as="geometry" />
        </mxCell>
        <mxCell id="3mnLrCownMHRzhvr0oC8-31" style="edgeStyle=orthogonalEdgeStyle;rounded=0;orthogonalLoop=1;jettySize=auto;html=1;exitX=0.5;exitY=0;exitDx=0;exitDy=0;entryX=0.5;entryY=1;entryDx=0;entryDy=0;" edge="1" parent="1" source="3mnLrCownMHRzhvr0oC8-6" target="3mnLrCownMHRzhvr0oC8-28">
          <mxGeometry relative="1" as="geometry" />
        </mxCell>
        <mxCell id="3mnLrCownMHRzhvr0oC8-6" value="" style="rounded=0;whiteSpace=wrap;html=1;" vertex="1" parent="1">
          <mxGeometry x="480" y="280" width="80" height="60" as="geometry" />
        </mxCell>
        <mxCell id="3mnLrCownMHRzhvr0oC8-7" value="" style="rounded=0;whiteSpace=wrap;html=1;" vertex="1" parent="1">
          <mxGeometry x="560" y="280" width="80" height="60" as="geometry" />
        </mxCell>
        <mxCell id="3mnLrCownMHRzhvr0oC8-13" style="edgeStyle=orthogonalEdgeStyle;rounded=0;orthogonalLoop=1;jettySize=auto;html=1;exitX=0.5;exitY=0;exitDx=0;exitDy=0;entryX=0.5;entryY=1;entryDx=0;entryDy=0;" edge="1" parent="1" source="3mnLrCownMHRzhvr0oC8-9" target="3mnLrCownMHRzhvr0oC8-10">
          <mxGeometry relative="1" as="geometry" />
        </mxCell>
        <mxCell id="3mnLrCownMHRzhvr0oC8-9" value="Pine, 25" style="rounded=1;whiteSpace=wrap;html=1;" vertex="1" parent="1">
          <mxGeometry x="175" y="170" width="50" height="60" as="geometry" />
        </mxCell>
        <mxCell id="3mnLrCownMHRzhvr0oC8-10" value="Birch, 18" style="rounded=1;whiteSpace=wrap;html=1;fillColor=#f8cecc;strokeColor=#b85450;" vertex="1" parent="1">
          <mxGeometry x="175" y="90" width="50" height="60" as="geometry" />
        </mxCell>
        <mxCell id="3mnLrCownMHRzhvr0oC8-20" value="" style="rounded=1;whiteSpace=wrap;html=1;fillColor=none;" vertex="1" parent="1">
          <mxGeometry x="410" y="160" width="60" height="80" as="geometry" />
        </mxCell>
        <mxCell id="3mnLrCownMHRzhvr0oC8-22" value="Oak, 20" style="rounded=1;whiteSpace=wrap;html=1;" vertex="1" parent="1">
          <mxGeometry x="415" y="170" width="50" height="60" as="geometry" />
        </mxCell>
        <mxCell id="3mnLrCownMHRzhvr0oC8-28" value="" style="rounded=1;whiteSpace=wrap;html=1;fillColor=none;" vertex="1" parent="1">
          <mxGeometry x="490" y="160" width="60" height="80" as="geometry" />
        </mxCell>
        <mxCell id="3mnLrCownMHRzhvr0oC8-29" value="Maple, 15" style="rounded=1;whiteSpace=wrap;html=1;fontSize=12;" vertex="1" parent="1">
          <mxGeometry x="495" y="170" width="50" height="60" as="geometry" />
        </mxCell>
        <mxCell id="3mnLrCownMHRzhvr0oC8-32" value="" style="endArrow=classic;startArrow=classic;html=1;rounded=0;" edge="1" parent="1">
          <mxGeometry width="50" height="50" relative="1" as="geometry">
            <mxPoint x="80" y="360" as="sourcePoint" />
            <mxPoint x="640" y="360" as="targetPoint" />
          </mxGeometry>
        </mxCell>
        <mxCell id="3mnLrCownMHRzhvr0oC8-33" value="N = 7" style="text;html=1;align=center;verticalAlign=middle;whiteSpace=wrap;rounded=0;" vertex="1" parent="1">
          <mxGeometry x="330" y="360" width="60" height="30" as="geometry" />
        </mxCell>
        <mxCell id="3mnLrCownMHRzhvr0oC8-34" value="" style="shape=step;perimeter=stepPerimeter;whiteSpace=wrap;html=1;fixedSize=1;rotation=-90;direction=east;" vertex="1" parent="1">
          <mxGeometry x="140" y="410" width="120" height="80" as="geometry" />
        </mxCell>
        <mxCell id="3mnLrCownMHRzhvr0oC8-35" value="hash(Birch)%7" style="text;html=1;align=center;verticalAlign=middle;whiteSpace=wrap;rounded=0;rotation=-30;" vertex="1" parent="1">
          <mxGeometry x="170" y="435" width="60" height="30" as="geometry" />
        </mxCell>
      </root>
    </mxGraphModel>
  </diagram>
</mxfile>
